<?xml version="1.0" encoding="utf-8"?>
<!-- Generator: Adobe Illustrator 16.0.0, SVG Export Plug-In . SVG Version: 6.00 Build 0)  -->
<!DOCTYPE svg PUBLIC "-//W3C//DTD SVG 1.1//EN" "http://www.w3.org/Graphics/SVG/1.1/DTD/svg11.dtd">
<svg version="1.1" id="Layer_1" xmlns="http://www.w3.org/2000/svg" xmlns:xlink="http://www.w3.org/1999/xlink" x="0px" y="0px"
	 width="2000px" height="1000px" viewBox="0 0 2000 1000" enable-background="new 0 0 2000 1000" xml:space="preserve">
<path fill="#FFFFFF" d="M1000,78.125c231.682,0,421.875,187.646,421.875,421.875c0,232.99-188.691,421.875-421.875,421.875
	c-232.898,0-421.875-188.598-421.875-421.875C578.125,267.182,766.801,78.125,1000,78.125 M1000,15.625
	c-267.494,0-484.375,216.959-484.375,484.375c0,267.572,216.881,484.375,484.375,484.375S1484.375,767.572,1484.375,500
	C1484.375,232.584,1267.494,15.625,1000,15.625z M929.688,687.5h23.438V453.125h-23.438c-12.943,0-23.438-10.494-23.438-23.438
	v-15.625c0-12.943,10.494-23.438,23.438-23.438h93.75c12.943,0,23.438,10.494,23.438,23.438V687.5h23.438
	c12.943,0,23.438,10.494,23.438,23.438v15.625c0,12.943-10.494,23.438-23.438,23.438H929.688c-12.943,0-23.438-10.494-23.438-23.438
	v-15.625C906.25,697.994,916.744,687.5,929.688,687.5z M1000,218.75c-34.518,0-62.5,27.982-62.5,62.5s27.982,62.5,62.5,62.5
	s62.5-27.982,62.5-62.5S1034.518,218.75,1000,218.75z"/>
</svg>
