<?xml version="1.0" encoding="utf-8"?>
<!-- Generator: Adobe Illustrator 16.0.0, SVG Export Plug-In . SVG Version: 6.00 Build 0)  -->
<!DOCTYPE svg PUBLIC "-//W3C//DTD SVG 1.1//EN" "http://www.w3.org/Graphics/SVG/1.1/DTD/svg11.dtd">
<svg version="1.1" id="Layer_1" xmlns="http://www.w3.org/2000/svg" xmlns:xlink="http://www.w3.org/1999/xlink" x="0px" y="0px"
	 width="2000px" height="1000px" viewBox="0 0 2000 1000" enable-background="new 0 0 2000 1000" xml:space="preserve">
<path fill="#FFFFFF" d="M1000,937.5c-34.492,0-62.5-28.086-62.5-62.559H875C875,943.906,931.094,1000,1000,1000
	s125-56.094,125-125.059h-62.5C1062.5,909.414,1034.492,937.5,1000,937.5z M1408.945,653.926
	c-54.609-51.992-96.367-106.406-96.367-290.84c0-155.449-123.809-282.227-281.328-297.559V31.25C1031.25,13.984,1017.266,0,1000,0
	s-31.25,13.984-31.25,31.25v34.297c-157.52,15.332-281.328,142.09-281.328,297.539c0,184.414-41.777,238.848-96.387,290.84
	c-27.285,25.977-35.898,65.254-21.973,100.059C583.281,789.531,617.5,812.5,656.25,812.5h687.5c38.75,0,72.969-22.988,87.188-58.535
	C1444.863,719.16,1436.23,679.902,1408.945,653.926z M1343.75,750h-687.5c-27.793,0-41.68-32.168-22.109-50.801
	c68.086-64.824,115.781-137.383,115.781-336.094C749.922,231.504,861.777,125,1000,125c138.203,0,250.078,106.484,250.078,238.086
	c0,197.949,47.285,270.898,115.781,336.094C1385.508,717.91,1371.426,750,1343.75,750z"/>
</svg>
