<?xml version="1.0" encoding="utf-8"?>
<!-- Generator: Adobe Illustrator 16.0.0, SVG Export Plug-In . SVG Version: 6.00 Build 0)  -->
<!DOCTYPE svg PUBLIC "-//W3C//DTD SVG 1.1//EN" "http://www.w3.org/Graphics/SVG/1.1/DTD/svg11.dtd">
<svg version="1.1" id="Layer_1" xmlns="http://www.w3.org/2000/svg" xmlns:xlink="http://www.w3.org/1999/xlink" x="0px" y="0px"
	 width="2000px" height="1000px" viewBox="0 0 2000 1000" enable-background="new 0 0 2000 1000" xml:space="preserve">
<path fill="#FFFFFF" d="M1442.766,584.523l-63.691-36.771c4.004-31.709,4.004-63.797,0-95.506l63.691-36.771
	c18.703-10.797,27.725-33.012,21.574-53.713c-21.902-73.729-60.889-140.094-112.373-194.521
	c-14.91-15.762-38.705-19.211-57.494-8.363l-63.598,36.715c-25.438-19.36-53.224-35.425-82.693-47.813V74.314
	c0-21.738-14.945-40.633-36.102-45.639c-73.523-17.4-150.621-17.402-224.16,0c-21.154,5.006-36.102,23.898-36.102,45.639v73.465
	c-29.471,12.387-57.255,28.452-82.693,47.813l-63.598-36.715c-18.791-10.848-42.586-7.398-57.494,8.363
	c-51.484,54.428-90.471,120.795-112.373,194.521c-6.15,20.701,2.871,42.914,21.574,53.713l63.691,36.771
	c-4.004,31.709-4.004,63.797,0,95.506l-63.691,36.771c-18.703,10.797-27.725,33.012-21.574,53.713
	c21.902,73.727,60.889,140.094,112.373,194.521c14.91,15.762,38.705,19.211,57.494,8.365l63.598-36.715
	c25.438,19.359,53.223,35.424,82.693,47.811v73.465c0,21.738,14.945,40.633,36.102,45.639c73.525,17.4,150.621,17.402,224.16,0
	c21.154-5.006,36.102-23.898,36.102-45.639v-73.465c29.47-12.388,57.254-28.452,82.693-47.811l63.598,36.715
	c18.789,10.848,42.584,7.398,57.494-8.365c51.484-54.428,90.471-120.795,112.373-194.521
	C1470.49,617.535,1461.469,595.322,1442.766,584.523L1442.766,584.523z M1314.877,780.736l-90.447-52.227
	c-52.711,45.061-71.404,56.398-138.748,80.193v104.451c-56.526,11.66-114.837,11.66-171.363,0V808.703
	c-65.666-23.201-84.678-33.975-138.748-80.193l-90.447,52.227c-38.496-43.145-67.752-93.729-85.799-148.355l90.486-52.227
	c-12.764-69.174-12.77-91.102,0-160.311l-90.486-52.227c18.047-54.627,47.305-105.213,85.799-148.377l90.447,52.266
	c53.471-45.77,72.389-56.768,138.748-80.213V86.844c56.524-11.68,114.84-11.68,171.363,0v104.451
	c66.363,23.447,85.283,34.447,138.748,80.213l90.447-52.266c38.494,43.162,67.752,93.748,85.799,148.377l-90.486,52.227
	c12.766,69.191,12.77,91.102,0,160.311l90.486,52.227C1382.629,687.008,1353.373,737.594,1314.877,780.736z M1000,312.5
	c-103.389,0-187.5,84.111-187.5,187.5s84.111,187.5,187.5,187.5s187.5-84.111,187.5-187.5S1103.389,312.5,1000,312.5z M1000,625
	c-68.926,0-125-56.074-125-125s56.074-125,125-125s125,56.074,125,125S1068.926,625,1000,625z"/>
</svg>
