<?xml version="1.0" encoding="utf-8"?>
<!-- Generator: Adobe Illustrator 16.0.0, SVG Export Plug-In . SVG Version: 6.00 Build 0)  -->
<!DOCTYPE svg PUBLIC "-//W3C//DTD SVG 1.1//EN" "http://www.w3.org/Graphics/SVG/1.1/DTD/svg11.dtd">
<svg version="1.1" id="Layer_1" xmlns="http://www.w3.org/2000/svg" xmlns:xlink="http://www.w3.org/1999/xlink" x="0px" y="0px"
	 width="2000px" height="1000px" viewBox="0 0 2000 1000" enable-background="new 0 0 2000 1000" xml:space="preserve">
<path fill="#FFFFFF" d="M1000,664.063c-30.203,0-54.688,24.484-54.688,54.688s24.484,54.688,54.688,54.688
	s54.688-24.484,54.688-54.688S1030.203,664.063,1000,664.063z M1014.98,617.188h-31.25c-12.943,0-23.438-10.494-23.438-23.438
	v-0.744c0-137.389,151.25-124.256,151.25-209.781c0-39.094-34.689-78.537-112.188-78.537c-56.922,0-86.455,18.846-115.646,56.039
	c-7.633,9.727-21.59,11.709-31.734,4.641l-25.652-17.871c-10.986-7.654-13.398-22.99-5.166-33.549
	c41.457-53.178,90.645-87.385,178.199-87.385c102.188,0,190.313,58.107,190.313,156.662c0,131.668-151.25,124.705-151.25,209.781
	v0.744C1038.418,606.693,1027.924,617.188,1014.98,617.188z M1000,78.125c231.682,0,421.875,187.646,421.875,421.875
	c0,232.99-188.691,421.875-421.875,421.875c-232.898,0-421.875-188.598-421.875-421.875C578.125,267.182,766.801,78.125,1000,78.125
	 M1000,15.625c-267.494,0-484.375,216.959-484.375,484.375c0,267.572,216.881,484.375,484.375,484.375
	S1484.375,767.572,1484.375,500C1484.375,232.584,1267.494,15.625,1000,15.625z"/>
</svg>
